<mxfile host="app.diagrams.net" modified="2023-10-06T00:23:12.327Z" agent="Mozilla/5.0 (Macintosh; Intel Mac OS X 10_15_7) AppleWebKit/537.36 (KHTML, like Gecko) Chrome/117.0.0.0 Safari/537.36" etag="NGM5h9iHRwyJ9kfaSRcP" version="21.7.5" type="device">
  <diagram id="C5RBs43oDa-KdzZeNtuy" name="Page-1">
    <mxGraphModel dx="594" dy="1630" grid="1" gridSize="10" guides="1" tooltips="1" connect="1" arrows="1" fold="1" page="1" pageScale="1" pageWidth="827" pageHeight="1169" math="0" shadow="0">
      <root>
        <mxCell id="WIyWlLk6GJQsqaUBKTNV-0" />
        <mxCell id="WIyWlLk6GJQsqaUBKTNV-1" parent="WIyWlLk6GJQsqaUBKTNV-0" />
        <mxCell id="QtsCjaTQRIlHy4DZb-v4-36" value="Extends" style="edgeStyle=orthogonalEdgeStyle;rounded=0;orthogonalLoop=1;jettySize=auto;html=1;exitX=0.5;exitY=0;exitDx=0;exitDy=0;" parent="WIyWlLk6GJQsqaUBKTNV-1" source="zkfFHV4jXpPFQw0GAbJ--0" target="QtsCjaTQRIlHy4DZb-v4-2" edge="1">
          <mxGeometry relative="1" as="geometry" />
        </mxCell>
        <mxCell id="zkfFHV4jXpPFQw0GAbJ--0" value="Dine-In" style="swimlane;fontStyle=0;align=center;verticalAlign=top;childLayout=stackLayout;horizontal=1;startSize=26;horizontalStack=0;resizeParent=1;resizeLast=0;collapsible=1;marginBottom=0;rounded=0;shadow=0;strokeWidth=1;fillColor=#FFFFFF;" parent="WIyWlLk6GJQsqaUBKTNV-1" vertex="1">
          <mxGeometry x="200" y="400" width="160" height="120" as="geometry">
            <mxRectangle x="230" y="140" width="160" height="26" as="alternateBounds" />
          </mxGeometry>
        </mxCell>
        <mxCell id="zkfFHV4jXpPFQw0GAbJ--1" value="-  table: int" style="text;align=left;verticalAlign=top;spacingLeft=4;spacingRight=4;overflow=hidden;rotatable=0;points=[[0,0.5],[1,0.5]];portConstraint=eastwest;fillColor=default;" parent="zkfFHV4jXpPFQw0GAbJ--0" vertex="1">
          <mxGeometry y="26" width="160" height="26" as="geometry" />
        </mxCell>
        <mxCell id="zkfFHV4jXpPFQw0GAbJ--4" value="" style="line;html=1;strokeWidth=1;align=left;verticalAlign=middle;spacingTop=-1;spacingLeft=3;spacingRight=3;rotatable=0;labelPosition=right;points=[];portConstraint=eastwest;" parent="zkfFHV4jXpPFQw0GAbJ--0" vertex="1">
          <mxGeometry y="52" width="160" height="8" as="geometry" />
        </mxCell>
        <mxCell id="QtsCjaTQRIlHy4DZb-v4-26" value="&amp;nbsp;+ getTable(void): int" style="text;html=1;align=left;verticalAlign=middle;resizable=0;points=[];autosize=1;strokeColor=none;fillColor=default;" parent="zkfFHV4jXpPFQw0GAbJ--0" vertex="1">
          <mxGeometry y="60" width="160" height="30" as="geometry" />
        </mxCell>
        <mxCell id="QtsCjaTQRIlHy4DZb-v4-28" value="&amp;nbsp;+ setTable(int): void" style="text;strokeColor=none;align=left;fillColor=default;html=1;verticalAlign=middle;whiteSpace=wrap;rounded=0;" parent="zkfFHV4jXpPFQw0GAbJ--0" vertex="1">
          <mxGeometry y="90" width="160" height="30" as="geometry" />
        </mxCell>
        <mxCell id="QtsCjaTQRIlHy4DZb-v4-37" value="Extends" style="edgeStyle=orthogonalEdgeStyle;rounded=0;orthogonalLoop=1;jettySize=auto;html=1;exitX=0.5;exitY=0;exitDx=0;exitDy=0;" parent="WIyWlLk6GJQsqaUBKTNV-1" source="zkfFHV4jXpPFQw0GAbJ--17" target="QtsCjaTQRIlHy4DZb-v4-2" edge="1">
          <mxGeometry relative="1" as="geometry" />
        </mxCell>
        <mxCell id="zkfFHV4jXpPFQw0GAbJ--17" value="Delivery" style="swimlane;fontStyle=0;align=center;verticalAlign=top;childLayout=stackLayout;horizontal=1;startSize=26;horizontalStack=0;resizeParent=1;resizeLast=0;collapsible=1;marginBottom=0;rounded=0;shadow=0;strokeWidth=1;" parent="WIyWlLk6GJQsqaUBKTNV-1" vertex="1">
          <mxGeometry x="600" y="400" width="160" height="342" as="geometry">
            <mxRectangle x="550" y="140" width="160" height="26" as="alternateBounds" />
          </mxGeometry>
        </mxCell>
        <mxCell id="zkfFHV4jXpPFQw0GAbJ--18" value="- street: string" style="text;align=left;verticalAlign=top;spacingLeft=4;spacingRight=4;overflow=hidden;rotatable=0;points=[[0,0.5],[1,0.5]];portConstraint=eastwest;fillColor=default;" parent="zkfFHV4jXpPFQw0GAbJ--17" vertex="1">
          <mxGeometry y="26" width="160" height="26" as="geometry" />
        </mxCell>
        <mxCell id="zkfFHV4jXpPFQw0GAbJ--19" value="- city: string" style="text;align=left;verticalAlign=top;spacingLeft=4;spacingRight=4;overflow=hidden;rotatable=0;points=[[0,0.5],[1,0.5]];portConstraint=eastwest;rounded=0;shadow=0;html=0;fillColor=default;" parent="zkfFHV4jXpPFQw0GAbJ--17" vertex="1">
          <mxGeometry y="52" width="160" height="26" as="geometry" />
        </mxCell>
        <mxCell id="zkfFHV4jXpPFQw0GAbJ--20" value="- state: string" style="text;align=left;verticalAlign=top;spacingLeft=4;spacingRight=4;overflow=hidden;rotatable=0;points=[[0,0.5],[1,0.5]];portConstraint=eastwest;rounded=0;shadow=0;html=0;fillColor=default;" parent="zkfFHV4jXpPFQw0GAbJ--17" vertex="1">
          <mxGeometry y="78" width="160" height="26" as="geometry" />
        </mxCell>
        <mxCell id="zkfFHV4jXpPFQw0GAbJ--21" value="- zip: int" style="text;align=left;verticalAlign=top;spacingLeft=4;spacingRight=4;overflow=hidden;rotatable=0;points=[[0,0.5],[1,0.5]];portConstraint=eastwest;rounded=0;shadow=0;html=0;fillColor=default;" parent="zkfFHV4jXpPFQw0GAbJ--17" vertex="1">
          <mxGeometry y="104" width="160" height="26" as="geometry" />
        </mxCell>
        <mxCell id="zkfFHV4jXpPFQw0GAbJ--23" value="" style="line;html=1;strokeWidth=1;align=left;verticalAlign=middle;spacingTop=-1;spacingLeft=3;spacingRight=3;rotatable=0;labelPosition=right;points=[];portConstraint=eastwest;fillColor=default;" parent="zkfFHV4jXpPFQw0GAbJ--17" vertex="1">
          <mxGeometry y="130" width="160" height="8" as="geometry" />
        </mxCell>
        <mxCell id="zkfFHV4jXpPFQw0GAbJ--24" value="+ getStreet(void): string" style="text;align=left;verticalAlign=top;spacingLeft=4;spacingRight=4;overflow=hidden;rotatable=0;points=[[0,0.5],[1,0.5]];portConstraint=eastwest;fillColor=default;" parent="zkfFHV4jXpPFQw0GAbJ--17" vertex="1">
          <mxGeometry y="138" width="160" height="26" as="geometry" />
        </mxCell>
        <mxCell id="zkfFHV4jXpPFQw0GAbJ--25" value="+ setStreet(string): void" style="text;align=left;verticalAlign=top;spacingLeft=4;spacingRight=4;overflow=hidden;rotatable=0;points=[[0,0.5],[1,0.5]];portConstraint=eastwest;fillColor=default;" parent="zkfFHV4jXpPFQw0GAbJ--17" vertex="1">
          <mxGeometry y="164" width="160" height="26" as="geometry" />
        </mxCell>
        <mxCell id="QtsCjaTQRIlHy4DZb-v4-34" value="+ getCity(void): string" style="text;align=left;verticalAlign=top;spacingLeft=4;spacingRight=4;overflow=hidden;rotatable=0;points=[[0,0.5],[1,0.5]];portConstraint=eastwest;fillColor=default;" parent="zkfFHV4jXpPFQw0GAbJ--17" vertex="1">
          <mxGeometry y="190" width="160" height="26" as="geometry" />
        </mxCell>
        <mxCell id="QtsCjaTQRIlHy4DZb-v4-35" value="+ setCity(string): void" style="text;align=left;verticalAlign=top;spacingLeft=4;spacingRight=4;overflow=hidden;rotatable=0;points=[[0,0.5],[1,0.5]];portConstraint=eastwest;fillColor=default;" parent="zkfFHV4jXpPFQw0GAbJ--17" vertex="1">
          <mxGeometry y="216" width="160" height="26" as="geometry" />
        </mxCell>
        <mxCell id="QtsCjaTQRIlHy4DZb-v4-30" value="+ getState(void): string" style="text;align=left;verticalAlign=top;spacingLeft=4;spacingRight=4;overflow=hidden;rotatable=0;points=[[0,0.5],[1,0.5]];portConstraint=eastwest;fillColor=default;" parent="zkfFHV4jXpPFQw0GAbJ--17" vertex="1">
          <mxGeometry y="242" width="160" height="26" as="geometry" />
        </mxCell>
        <mxCell id="QtsCjaTQRIlHy4DZb-v4-33" value="+ setState(string): void" style="text;align=left;verticalAlign=top;spacingLeft=4;spacingRight=4;overflow=hidden;rotatable=0;points=[[0,0.5],[1,0.5]];portConstraint=eastwest;fillColor=default;" parent="zkfFHV4jXpPFQw0GAbJ--17" vertex="1">
          <mxGeometry y="268" width="160" height="22" as="geometry" />
        </mxCell>
        <mxCell id="QtsCjaTQRIlHy4DZb-v4-32" value="+ getZip(void):  int" style="text;align=left;verticalAlign=top;spacingLeft=4;spacingRight=4;overflow=hidden;rotatable=0;points=[[0,0.5],[1,0.5]];portConstraint=eastwest;fillColor=default;" parent="zkfFHV4jXpPFQw0GAbJ--17" vertex="1">
          <mxGeometry y="290" width="160" height="26" as="geometry" />
        </mxCell>
        <mxCell id="QtsCjaTQRIlHy4DZb-v4-31" value="+ setZip(int): void" style="text;align=left;verticalAlign=top;spacingLeft=4;spacingRight=4;overflow=hidden;rotatable=0;points=[[0,0.5],[1,0.5]];portConstraint=eastwest;fillColor=default;" parent="zkfFHV4jXpPFQw0GAbJ--17" vertex="1">
          <mxGeometry y="316" width="160" height="26" as="geometry" />
        </mxCell>
        <mxCell id="QtsCjaTQRIlHy4DZb-v4-0" value="Order" style="swimlane;fontStyle=0;align=center;verticalAlign=top;childLayout=stackLayout;horizontal=1;startSize=26;horizontalStack=0;resizeParent=1;resizeLast=0;collapsible=1;marginBottom=0;rounded=0;shadow=0;strokeWidth=1;fillColor=default;" parent="WIyWlLk6GJQsqaUBKTNV-1" vertex="1">
          <mxGeometry x="400" y="210" width="160" height="670" as="geometry">
            <mxRectangle x="550" y="140" width="160" height="26" as="alternateBounds" />
          </mxGeometry>
        </mxCell>
        <mxCell id="QtsCjaTQRIlHy4DZb-v4-1" value="- firstName: string" style="text;align=left;verticalAlign=top;spacingLeft=4;spacingRight=4;overflow=hidden;rotatable=0;points=[[0,0.5],[1,0.5]];portConstraint=eastwest;fillColor=default;" parent="QtsCjaTQRIlHy4DZb-v4-0" vertex="1">
          <mxGeometry y="26" width="160" height="26" as="geometry" />
        </mxCell>
        <mxCell id="QtsCjaTQRIlHy4DZb-v4-2" value="- lastName: string" style="text;align=left;verticalAlign=top;spacingLeft=4;spacingRight=4;overflow=hidden;rotatable=0;points=[[0,0.5],[1,0.5]];portConstraint=eastwest;rounded=0;shadow=0;html=0;fillColor=default;" parent="QtsCjaTQRIlHy4DZb-v4-0" vertex="1">
          <mxGeometry y="52" width="160" height="26" as="geometry" />
        </mxCell>
        <mxCell id="QtsCjaTQRIlHy4DZb-v4-3" value="- day: int" style="text;align=left;verticalAlign=top;spacingLeft=4;spacingRight=4;overflow=hidden;rotatable=0;points=[[0,0.5],[1,0.5]];portConstraint=eastwest;rounded=0;shadow=0;html=0;fillColor=default;" parent="QtsCjaTQRIlHy4DZb-v4-0" vertex="1">
          <mxGeometry y="78" width="160" height="26" as="geometry" />
        </mxCell>
        <mxCell id="QtsCjaTQRIlHy4DZb-v4-4" value="- month: int" style="text;align=left;verticalAlign=top;spacingLeft=4;spacingRight=4;overflow=hidden;rotatable=0;points=[[0,0.5],[1,0.5]];portConstraint=eastwest;rounded=0;shadow=0;html=0;fillColor=default;" parent="QtsCjaTQRIlHy4DZb-v4-0" vertex="1">
          <mxGeometry y="104" width="160" height="26" as="geometry" />
        </mxCell>
        <mxCell id="QtsCjaTQRIlHy4DZb-v4-5" value="- year: int" style="text;align=left;verticalAlign=top;spacingLeft=4;spacingRight=4;overflow=hidden;rotatable=0;points=[[0,0.5],[1,0.5]];portConstraint=eastwest;rounded=0;shadow=0;html=0;fillColor=default;" parent="QtsCjaTQRIlHy4DZb-v4-0" vertex="1">
          <mxGeometry y="130" width="160" height="26" as="geometry" />
        </mxCell>
        <mxCell id="QtsCjaTQRIlHy4DZb-v4-7" value="- completed: boolean" style="text;align=left;verticalAlign=top;spacingLeft=4;spacingRight=4;overflow=hidden;rotatable=0;points=[[0,0.5],[1,0.5]];portConstraint=eastwest;fillColor=default;" parent="QtsCjaTQRIlHy4DZb-v4-0" vertex="1">
          <mxGeometry y="156" width="160" height="26" as="geometry" />
        </mxCell>
        <mxCell id="QtsCjaTQRIlHy4DZb-v4-8" value="- orderCost: double&#xa;" style="text;align=left;verticalAlign=top;spacingLeft=4;spacingRight=4;overflow=hidden;rotatable=0;points=[[0,0.5],[1,0.5]];portConstraint=eastwest;fillColor=default;" parent="QtsCjaTQRIlHy4DZb-v4-0" vertex="1">
          <mxGeometry y="182" width="160" height="28" as="geometry" />
        </mxCell>
        <mxCell id="QtsCjaTQRIlHy4DZb-v4-11" value="&amp;nbsp; - cardNumber: string" style="text;strokeColor=none;align=left;fillColor=default;html=1;verticalAlign=middle;whiteSpace=wrap;rounded=0;" parent="QtsCjaTQRIlHy4DZb-v4-0" vertex="1">
          <mxGeometry y="210" width="160" height="30" as="geometry" />
        </mxCell>
        <mxCell id="QtsCjaTQRIlHy4DZb-v4-6" value="" style="line;html=1;strokeWidth=1;align=left;verticalAlign=middle;spacingTop=-1;spacingLeft=3;spacingRight=3;rotatable=0;labelPosition=right;points=[];portConstraint=eastwest;fillColor=default;" parent="QtsCjaTQRIlHy4DZb-v4-0" vertex="1">
          <mxGeometry y="240" width="160" height="10" as="geometry" />
        </mxCell>
        <mxCell id="QtsCjaTQRIlHy4DZb-v4-12" value="&amp;nbsp;+ getFirstName(void): string" style="text;strokeColor=none;align=left;fillColor=default;html=1;verticalAlign=middle;whiteSpace=wrap;rounded=0;" parent="QtsCjaTQRIlHy4DZb-v4-0" vertex="1">
          <mxGeometry y="250" width="160" height="30" as="geometry" />
        </mxCell>
        <mxCell id="QtsCjaTQRIlHy4DZb-v4-13" value="&amp;nbsp;+ setFirstName(string): void" style="text;strokeColor=none;align=left;fillColor=default;html=1;verticalAlign=middle;whiteSpace=wrap;rounded=0;" parent="QtsCjaTQRIlHy4DZb-v4-0" vertex="1">
          <mxGeometry y="280" width="160" height="30" as="geometry" />
        </mxCell>
        <mxCell id="QtsCjaTQRIlHy4DZb-v4-24" value="&amp;nbsp;+ getLastName(void): string" style="text;strokeColor=none;align=left;fillColor=default;html=1;verticalAlign=middle;whiteSpace=wrap;rounded=0;" parent="QtsCjaTQRIlHy4DZb-v4-0" vertex="1">
          <mxGeometry y="310" width="160" height="30" as="geometry" />
        </mxCell>
        <mxCell id="QtsCjaTQRIlHy4DZb-v4-25" value="&amp;nbsp;+ setLastName(string): void" style="text;strokeColor=none;align=left;fillColor=default;html=1;verticalAlign=middle;whiteSpace=wrap;rounded=0;" parent="QtsCjaTQRIlHy4DZb-v4-0" vertex="1">
          <mxGeometry y="340" width="160" height="30" as="geometry" />
        </mxCell>
        <mxCell id="QtsCjaTQRIlHy4DZb-v4-20" value="&amp;nbsp;+ getDay(void): int" style="text;strokeColor=none;align=left;fillColor=default;html=1;verticalAlign=middle;whiteSpace=wrap;rounded=0;" parent="QtsCjaTQRIlHy4DZb-v4-0" vertex="1">
          <mxGeometry y="370" width="160" height="30" as="geometry" />
        </mxCell>
        <mxCell id="QtsCjaTQRIlHy4DZb-v4-23" value="&amp;nbsp;+ setDay(int): void" style="text;strokeColor=none;align=left;fillColor=default;html=1;verticalAlign=middle;whiteSpace=wrap;rounded=0;" parent="QtsCjaTQRIlHy4DZb-v4-0" vertex="1">
          <mxGeometry y="400" width="160" height="30" as="geometry" />
        </mxCell>
        <mxCell id="QtsCjaTQRIlHy4DZb-v4-18" value="&amp;nbsp;+ getMonth(void): int" style="text;strokeColor=none;align=left;fillColor=default;html=1;verticalAlign=middle;whiteSpace=wrap;rounded=0;" parent="QtsCjaTQRIlHy4DZb-v4-0" vertex="1">
          <mxGeometry y="430" width="160" height="30" as="geometry" />
        </mxCell>
        <mxCell id="QtsCjaTQRIlHy4DZb-v4-15" value="&amp;nbsp;+ setMonth(int): void" style="text;strokeColor=none;align=left;fillColor=default;html=1;verticalAlign=middle;whiteSpace=wrap;rounded=0;" parent="QtsCjaTQRIlHy4DZb-v4-0" vertex="1">
          <mxGeometry y="460" width="160" height="30" as="geometry" />
        </mxCell>
        <mxCell id="QtsCjaTQRIlHy4DZb-v4-22" value="&amp;nbsp;+ getYear(void): int" style="text;strokeColor=none;align=left;fillColor=default;html=1;verticalAlign=middle;whiteSpace=wrap;rounded=0;" parent="QtsCjaTQRIlHy4DZb-v4-0" vertex="1">
          <mxGeometry y="490" width="160" height="30" as="geometry" />
        </mxCell>
        <mxCell id="QtsCjaTQRIlHy4DZb-v4-21" value="&amp;nbsp;+ setYear(int): void" style="text;strokeColor=none;align=left;fillColor=default;html=1;verticalAlign=middle;whiteSpace=wrap;rounded=0;" parent="QtsCjaTQRIlHy4DZb-v4-0" vertex="1">
          <mxGeometry y="520" width="160" height="30" as="geometry" />
        </mxCell>
        <mxCell id="QtsCjaTQRIlHy4DZb-v4-16" value="&amp;nbsp;+ getOrderCost(void): double" style="text;strokeColor=none;align=left;fillColor=default;html=1;verticalAlign=middle;whiteSpace=wrap;rounded=0;" parent="QtsCjaTQRIlHy4DZb-v4-0" vertex="1">
          <mxGeometry y="550" width="160" height="30" as="geometry" />
        </mxCell>
        <mxCell id="QtsCjaTQRIlHy4DZb-v4-17" value="&amp;nbsp;+ setOrderCost(double): void" style="text;strokeColor=none;align=left;fillColor=default;html=1;verticalAlign=middle;whiteSpace=wrap;rounded=0;" parent="QtsCjaTQRIlHy4DZb-v4-0" vertex="1">
          <mxGeometry y="580" width="160" height="30" as="geometry" />
        </mxCell>
        <mxCell id="QtsCjaTQRIlHy4DZb-v4-14" value="&amp;nbsp;+ getCardNumber(void): string" style="text;strokeColor=none;align=left;fillColor=default;html=1;verticalAlign=middle;whiteSpace=wrap;rounded=0;" parent="QtsCjaTQRIlHy4DZb-v4-0" vertex="1">
          <mxGeometry y="610" width="160" height="30" as="geometry" />
        </mxCell>
        <mxCell id="QtsCjaTQRIlHy4DZb-v4-19" value="&amp;nbsp;+ setCardNumber(string): void" style="text;strokeColor=none;align=left;fillColor=default;html=1;verticalAlign=middle;whiteSpace=wrap;rounded=0;" parent="QtsCjaTQRIlHy4DZb-v4-0" vertex="1">
          <mxGeometry y="640" width="160" height="30" as="geometry" />
        </mxCell>
      </root>
    </mxGraphModel>
  </diagram>
</mxfile>
